<svg width="25" height="26" viewBox="0 0 25 26" fill="none" xmlns="http://www.w3.org/2000/svg">
<path fill-rule="evenodd" clip-rule="evenodd" d="M13.2323 0.93659C13.7703 1.01342 14.312 1.07007 14.8455 1.1708C16.522 1.48731 18.0561 2.15184 19.4604 3.11654C19.6015 3.21356 19.7066 3.23694 19.8748 3.15802C20.729 2.75706 21.7498 2.96346 22.3824 3.64421C23.031 4.34228 23.1671 5.34728 22.7256 6.17883C22.2847 7.0094 21.345 7.47626 20.4327 7.31797C19.4864 7.15382 18.7507 6.43088 18.6233 5.48604C18.5831 5.1873 18.6303 4.87099 18.6766 4.56861C18.6984 4.42523 18.6884 4.35205 18.5655 4.27105C16.473 2.89113 14.1852 2.24365 11.6763 2.44029C8.80967 2.66506 6.38822 3.83831 4.42671 5.93102C2.81096 7.65486 1.86175 9.70511 1.55559 12.0527C1.293 14.0659 1.61602 15.987 2.4307 17.8356C2.45948 17.9009 2.48207 17.9688 2.51404 18.0525C2.0746 18.2565 1.64903 18.4542 1.1726 18.6753C0.960339 18.1021 0.733944 17.5489 0.550589 16.9818C0.277313 16.1368 0.106524 15.2679 0.0412813 14.38C0.0360722 14.309 0.014129 14.2393 0 14.1689C0 13.6644 0 13.1598 0 12.6553C0.013674 12.5925 0.0350955 12.5303 0.0399787 12.4668C0.205755 10.3332 0.865079 8.36302 2.05943 6.58956C4.05863 3.6209 6.81913 1.78428 10.3476 1.12854C10.8009 1.04428 11.2615 0.999552 11.7188 0.936523C12.2232 0.93659 12.7278 0.93659 13.2323 0.93659ZM20.7822 5.87534C21.1907 5.87684 21.5158 5.55838 21.5188 5.15377C21.5218 4.75756 21.1882 4.42048 20.7905 4.41774C20.3874 4.41488 20.0627 4.73888 20.061 5.14557C20.0594 5.55701 20.3725 5.87391 20.7822 5.87534Z" fill="white"/>
<path fill-rule="evenodd" clip-rule="evenodd" d="M11.7676 25.9366C11.2378 25.8614 10.7041 25.8065 10.1788 25.7073C8.49479 25.3893 6.95222 24.7248 5.54027 23.7572C5.39962 23.6609 5.29486 23.636 5.12583 23.714C3.94495 24.2594 2.5636 23.6647 2.14226 22.4431C1.72222 21.2254 2.43253 19.9 3.66868 19.5951C4.93466 19.2827 6.18722 20.0976 6.37559 21.3844C6.41915 21.682 6.36823 21.9991 6.32376 22.3018C6.30305 22.4427 6.30696 22.518 6.43211 22.6004C8.52494 23.9781 10.8121 24.6388 13.3202 24.4308C18.077 24.0363 21.8838 20.886 23.1545 16.2808C23.8328 13.8223 23.6073 11.4191 22.5926 9.08517C22.5576 9.00456 22.5235 8.92356 22.4874 8.83865C22.5288 8.81189 22.5537 8.79138 22.5821 8.77823C22.9792 8.59331 23.3769 8.4093 23.8104 8.2085C23.9507 8.55242 24.0959 8.88319 24.2218 9.22112C24.618 10.2852 24.8756 11.3812 24.9596 12.5159C24.9643 12.5793 24.9862 12.6414 25.0001 12.7042C25.0001 13.2087 25.0001 13.7133 25.0001 14.2178C24.9866 14.2723 24.965 14.326 24.9609 14.3811C24.7811 16.7409 23.9989 18.8844 22.5923 20.7829C20.5998 23.4721 17.9528 25.1401 14.6515 25.7441C14.1983 25.8271 13.7383 25.8733 13.2814 25.9365C12.7767 25.9366 12.2721 25.9366 11.7676 25.9366ZM4.93877 21.7122C4.93453 21.3039 4.61438 20.9934 4.20215 20.998C3.79598 21.0025 3.47296 21.3324 3.48136 21.734C3.4897 22.1336 3.82854 22.4627 4.22397 22.4552C4.62942 22.4476 4.94306 22.1216 4.93877 21.7122Z" fill="white"/>
<path fill-rule="evenodd" clip-rule="evenodd" d="M8.83792 8.30811C8.33825 8.30811 7.86938 8.30811 7.3869 8.30811C7.3869 7.82153 7.3869 7.35279 7.3869 6.86438C10.7849 6.86438 14.1884 6.86438 17.6094 6.86438C17.6094 7.33175 17.6094 7.80623 17.6094 8.29913C17.1397 8.29913 16.6707 8.29913 16.162 8.29913C16.162 8.40194 16.162 8.48697 16.162 8.57201C16.162 9.22287 16.1699 9.8738 16.16 10.5245C16.1434 11.6155 15.7222 12.5267 14.9118 13.2575C14.8523 13.3113 14.7927 13.365 14.7172 13.4331C14.7821 13.494 14.838 13.5484 14.8962 13.6005C15.7235 14.3406 16.1493 15.2652 16.1607 16.3754C16.1673 17.0181 16.1619 17.6609 16.162 18.3036C16.162 18.3826 16.162 18.4617 16.162 18.5585C16.6549 18.5585 17.1238 18.5585 17.6096 18.5585C17.6096 19.0508 17.6096 19.5253 17.6096 20.0141C14.2041 20.0141 10.8005 20.0141 7.38501 20.0141C7.38501 19.5362 7.38501 19.0676 7.38501 18.5719C7.85922 18.5719 8.33415 18.5719 8.83786 18.5719C8.83786 18.3293 8.83545 18.1123 8.83831 17.8955C8.84697 17.237 8.81826 16.5751 8.87679 15.921C8.96248 14.9631 9.42686 14.1827 10.1536 13.5572C10.1951 13.5216 10.2346 13.484 10.2869 13.4366C10.2092 13.3661 10.1445 13.3074 10.0797 13.2488C9.26988 12.5164 8.85225 11.6042 8.83955 10.5127C8.83109 9.78987 8.83792 9.0666 8.83792 8.30811ZM14.697 18.554C14.697 17.8129 14.7024 17.0985 14.6957 16.3841C14.6843 15.1456 13.7202 14.1735 12.5082 14.1697C11.2854 14.166 10.3134 15.1431 10.3037 16.3921C10.2985 17.0502 10.3023 17.7086 10.3034 18.3667C10.3035 18.4285 10.3142 18.4902 10.3201 18.554C11.7809 18.554 13.2247 18.554 14.697 18.554ZM10.305 8.32181C10.305 9.08824 10.2908 9.84211 10.3083 10.5952C10.3339 11.6941 11.2318 12.6164 12.3299 12.6985C13.449 12.7821 14.515 12.0115 14.6366 10.9057C14.7298 10.0581 14.6552 9.19203 14.6552 8.32181C13.2299 8.32181 11.7861 8.32181 10.305 8.32181Z" fill="white"/>
</svg>
