<svg width="15" height="20" viewBox="0 0 15 20" fill="none" xmlns="http://www.w3.org/2000/svg">
<path fill-rule="evenodd" clip-rule="evenodd" d="M14.6469 5.82533C13.3382 4.30383 12.032 2.78031 10.7296 1.25335C10.5416 1.03289 10.3218 0.935858 10.0308 0.936527C7.41047 0.941985 4.79011 0.939646 2.16975 0.939757C0.857675 0.939869 0.000672219 1.79409 0.000449541 3.10226C0.000226862 5.53959 0.000338201 7.97681 0.000338201 10.414C0.000338201 12.8654 -0.000664701 15.3168 0.000783558 17.768C0.00145159 19.0041 0.877726 19.8772 2.11706 19.8775C5.66727 19.8785 9.21749 19.8786 12.7677 19.8775C14.0064 19.877 14.8795 19.0034 14.8799 17.764C14.881 13.9954 14.8792 10.2268 14.8828 6.4582C14.883 6.21156 14.8068 6.01126 14.6469 5.82533ZM10.822 5.5289C10.8221 4.85325 10.8221 4.17772 10.8221 3.44348C11.4697 4.19766 12.0871 4.91697 12.7371 5.67427C12.1074 5.67427 11.5188 5.67104 10.9304 5.67695C10.8032 5.67817 10.8219 5.60521 10.822 5.5289ZM13.5272 17.7636C13.5272 18.2537 13.2592 18.5249 12.7735 18.5249C9.21671 18.5254 5.66003 18.5254 2.10324 18.5249C1.62155 18.5249 1.35318 18.25 1.35318 17.7598C1.35285 15.3018 1.35296 12.8437 1.35296 10.3857C1.35296 7.95587 1.35296 5.526 1.35307 3.09614C1.35307 2.54671 1.60439 2.29272 2.14836 2.29261C4.52186 2.2925 6.89535 2.2945 9.26885 2.28848C9.43472 2.28815 9.47427 2.33059 9.47327 2.49424C9.46614 3.74772 9.46915 5.00153 9.46948 6.25512C9.46959 6.75965 9.73194 7.02601 10.2335 7.02668C11.2689 7.02801 12.3042 7.03147 13.3395 7.02267C13.5026 7.02122 13.5312 7.06745 13.531 7.22007C13.5265 10.7344 13.5278 14.2489 13.5272 17.7636Z" fill="white"/>
<path fill-rule="evenodd" clip-rule="evenodd" d="M5.40926 3.64521C6.06351 3.64521 6.71788 3.64443 7.37213 3.64554C7.81283 3.64632 8.12152 3.93184 8.1164 4.33043C8.11149 4.71989 7.80581 4.99716 7.37525 4.9975C6.06674 4.99861 4.75812 4.9985 3.44972 4.9975C3.00958 4.99716 2.70078 4.71042 2.7059 4.31183C2.71092 3.92171 3.01526 3.64632 3.44661 3.64554C4.10075 3.64432 4.75511 3.64521 5.40926 3.64521Z" fill="white"/>
</svg>
