<svg width="20" height="20" viewBox="0 0 20 20" fill="none" xmlns="http://www.w3.org/2000/svg">
<path fill-rule="evenodd" clip-rule="evenodd" d="M10.3522 1.0003C10.2703 1.00313 10.1914 1.03167 10.1266 1.08187L1.1504 8.08615C0.980327 8.21876 0.949954 8.46413 1.08256 8.6342C1.21517 8.80428 1.46054 8.83465 1.63061 8.70205L2.17105 8.28052V18.5411C2.17115 18.7568 2.34594 18.9315 2.56147 18.9314H7.95955C8.0017 18.9384 8.0447 18.9384 8.08685 18.9314H12.6428C12.6849 18.9384 12.7279 18.9384 12.7701 18.9314H18.1721C18.3877 18.9314 18.5624 18.7567 18.5624 18.5411V8.28052L19.1028 8.70204C19.2729 8.83465 19.5183 8.80428 19.6509 8.63421C19.7835 8.46413 19.7531 8.21876 19.583 8.08615L16.611 5.7674V2.93031H14.2694V3.93953L10.6068 1.08187C10.5342 1.02556 10.4441 0.996675 10.3522 1.0003V1.0003ZM10.3667 1.88527L17.7819 7.67148V18.1509H13.0986V10.7357H7.63483V18.1509H2.95158V7.67148L10.3667 1.88527ZM15.05 3.71086H15.8305V5.15837L15.05 4.54857V3.71086ZM8.41537 11.5163H12.3181V18.1509H8.41537V11.5163Z" fill="white"/>
<path d="M10.3522 1.0003H10.5522V0.793288L10.3453 0.800424L10.3522 1.0003ZM10.1266 1.08187L10.0041 0.923775L10.0036 0.924189L10.1266 1.08187ZM1.1504 8.08615L1.27338 8.24387L1.27344 8.24383L1.1504 8.08615ZM1.08256 8.6342L0.924837 8.75718H0.924837L1.08256 8.6342ZM1.63061 8.70205L1.75359 8.85977L1.75362 8.85975L1.63061 8.70205ZM2.17105 8.28052H2.37105V7.87089L2.04805 8.12282L2.17105 8.28052ZM2.17105 18.5411H1.97105L1.97105 18.5412L2.17105 18.5411ZM2.56147 18.9314V18.7314H2.56141L2.56147 18.9314ZM7.95955 18.9314L7.99216 18.7341L7.97597 18.7314H7.95955V18.9314ZM8.08685 18.9314V18.7314H8.07043L8.05424 18.7341L8.08685 18.9314ZM12.6428 18.9314L12.6754 18.7341L12.6592 18.7314H12.6428V18.9314ZM12.7701 18.9314V18.7314H12.7537L12.7375 18.7341L12.7701 18.9314ZM18.1721 18.9314V19.1314H18.1721L18.1721 18.9314ZM18.5624 18.5411L18.7624 18.5411V18.5411H18.5624ZM18.5624 8.28052L18.6854 8.12282L18.3624 7.87089V8.28052H18.5624ZM19.1028 8.70204L18.9798 8.85975L18.9799 8.85977L19.1028 8.70204ZM19.6509 8.63421L19.8086 8.75718V8.75718L19.6509 8.63421ZM19.583 8.08615L19.46 8.24384L19.4601 8.24387L19.583 8.08615ZM16.611 5.7674H16.411V5.86503L16.488 5.92508L16.611 5.7674ZM16.611 2.93031H16.811V2.73031H16.611V2.93031ZM14.2694 2.93031V2.73031H14.0694V2.93031H14.2694ZM14.2694 3.93953L14.1464 4.09721L14.4694 4.34925V3.93953H14.2694ZM10.6068 1.08187L10.7299 0.924182L10.7294 0.923814L10.6068 1.08187ZM10.3522 1.0003H10.1522V1.20837L10.3601 1.20015L10.3522 1.0003ZM17.7819 7.67148H17.9819V7.57386L17.9049 7.51381L17.7819 7.67148ZM17.7819 18.1509V18.3509H17.9819V18.1509H17.7819ZM13.0986 18.1509H12.8986V18.3509H13.0986V18.1509ZM13.0986 10.7357H13.2986V10.5357H13.0986V10.7357ZM7.63483 10.7357V10.5357H7.43483V10.7357H7.63483ZM7.63483 18.1509V18.3509H7.83483V18.1509H7.63483ZM2.95158 18.1509H2.75158V18.3509H2.95158V18.1509ZM2.95158 7.67148L2.82855 7.51381L2.75158 7.57386V7.67148H2.95158ZM15.8305 3.71086H16.0305V3.51086H15.8305V3.71086ZM15.8305 5.15837L15.7074 5.31597L16.0305 5.56842V5.15837H15.8305ZM15.05 4.54857H14.85V4.64612L14.9268 4.70618L15.05 4.54857ZM12.3181 11.5163H12.5181V11.3163H12.3181V11.5163ZM12.3181 18.1509V18.3509H12.5181V18.1509H12.3181ZM8.41537 18.1509H8.21537V18.3509H8.41537V18.1509ZM10.3453 0.800424C10.2215 0.804696 10.1021 0.847853 10.0041 0.923776L10.2491 1.23995C10.2807 1.21548 10.3192 1.20156 10.3591 1.20019L10.3453 0.800424ZM10.0036 0.924189L1.02736 7.92847L1.27344 8.24383L10.2497 1.23954L10.0036 0.924189ZM1.02742 7.92843C0.770242 8.12895 0.724312 8.5 0.924837 8.75718L1.24028 8.51123C1.1756 8.42826 1.19041 8.30856 1.27338 8.24387L1.02742 7.92843ZM0.924837 8.75718C1.12536 9.01436 1.49641 9.06029 1.75359 8.85977L1.50764 8.54432C1.42467 8.60901 1.30497 8.59419 1.24028 8.51123L0.924837 8.75718ZM1.75362 8.85975L2.29405 8.43822L2.04805 8.12282L1.50761 8.54434L1.75362 8.85975ZM1.97105 8.28052V18.5411H2.37105V8.28052H1.97105ZM1.97105 18.5412C1.97121 18.8673 2.23551 19.1315 2.56153 19.1314L2.56141 18.7314C2.45637 18.7314 2.3711 18.6463 2.37105 18.541L1.97105 18.5412ZM2.56147 19.1314H7.95955V18.7314H2.56147V19.1314ZM7.92694 19.1287C7.99068 19.1393 8.05572 19.1393 8.11945 19.1287L8.05424 18.7341C8.03368 18.7375 8.01271 18.7375 7.99216 18.7341L7.92694 19.1287ZM8.08685 19.1314H12.6428V18.7314H8.08685V19.1314ZM12.6102 19.1287C12.6739 19.1393 12.739 19.1393 12.8027 19.1287L12.7375 18.7341C12.7169 18.7375 12.696 18.7375 12.6754 18.7341L12.6102 19.1287ZM12.7701 19.1314H18.1721V18.7314H12.7701V19.1314ZM18.1721 19.1314C18.4981 19.1314 18.7624 18.8671 18.7624 18.5411L18.3624 18.5411C18.3624 18.6462 18.2772 18.7314 18.1721 18.7314L18.1721 19.1314ZM18.7624 18.5411V8.28052H18.3624V18.5411H18.7624ZM18.4394 8.43822L18.9798 8.85975L19.2258 8.54434L18.6854 8.12282L18.4394 8.43822ZM18.9799 8.85977C19.237 9.0603 19.6081 9.01436 19.8086 8.75718L19.4932 8.51123C19.4285 8.59419 19.3088 8.60901 19.2258 8.54432L18.9799 8.85977ZM19.8086 8.75718C20.0091 8.5 19.9632 8.12896 19.706 7.92843L19.4601 8.24387C19.543 8.30856 19.5579 8.42826 19.4932 8.51123L19.8086 8.75718ZM19.7061 7.92847L16.7341 5.60971L16.488 5.92508L19.46 8.24384L19.7061 7.92847ZM16.811 5.7674V2.93031H16.411V5.7674H16.811ZM16.611 2.73031H14.2694V3.13031H16.611V2.73031ZM14.0694 2.93031V3.93953H14.4694V2.93031H14.0694ZM14.3925 3.78185L10.7299 0.924182L10.4838 1.23955L14.1464 4.09721L14.3925 3.78185ZM10.7294 0.923814C10.6196 0.838653 10.4832 0.794971 10.3443 0.800461L10.3601 1.20015C10.4049 1.19838 10.4489 1.21246 10.4843 1.23992L10.7294 0.923814ZM10.5522 1.0003V1.0003H10.1522V1.0003H10.5522ZM10.2437 2.04294L17.6588 7.82916L17.9049 7.51381L10.4898 1.72759L10.2437 2.04294ZM17.5819 7.67148V18.1509H17.9819V7.67148H17.5819ZM17.7819 17.9508H13.0986V18.3509H17.7819V17.9508ZM13.2986 18.1509V10.7357H12.8986V18.1509H13.2986ZM13.0986 10.5357H7.63483V10.9357H13.0986V10.5357ZM7.43483 10.7357V18.1509H7.83483V10.7357H7.43483ZM7.63483 17.9508H2.95158V18.3509H7.63483V17.9508ZM3.15158 18.1509V7.67148H2.75158V18.1509H3.15158ZM3.07462 7.82916L10.4898 2.04294L10.2437 1.72759L2.82855 7.51381L3.07462 7.82916ZM15.05 3.91086H15.8305V3.51086H15.05V3.91086ZM15.6305 3.71086V5.15837H16.0305V3.71086H15.6305ZM15.9536 5.00076L15.1731 4.39097L14.9268 4.70618L15.7074 5.31597L15.9536 5.00076ZM15.25 4.54857V3.71086H14.85V4.54857H15.25ZM8.41537 11.7163H12.3181V11.3163H8.41537V11.7163ZM12.1181 11.5163V18.1509H12.5181V11.5163H12.1181ZM12.3181 17.9509H8.41537V18.3509H12.3181V17.9509ZM8.61537 18.1509V11.5163H8.21537V18.1509H8.61537Z" fill="white"/>
</svg>
