<svg width="20" height="21" viewBox="0 0 20 21" fill="none" xmlns="http://www.w3.org/2000/svg">
<path fill-rule="evenodd" clip-rule="evenodd" d="M10.6276 20.9365H9.37238C8.35719 20.9365 7.53121 20.1106 7.53121 19.0954V18.6707C7.09961 18.5329 6.68027 18.3588 6.27742 18.1503L5.97648 18.4513C5.24762 19.181 4.08008 19.1596 3.37238 18.451L2.48523 17.5639C1.77629 16.8557 1.7559 15.6886 2.48547 14.9598L2.78617 14.6591C2.5777 14.2562 2.40367 13.837 2.26574 13.4053H1.84113C0.825977 13.4053 0 12.5793 0 11.5641V10.3089C0 9.29371 0.825977 8.46777 1.84117 8.46777H2.26578C2.40371 8.03613 2.57773 7.61684 2.78621 7.21398L2.48527 6.91309C1.75613 6.18473 1.77625 5.01746 2.48551 4.30898L3.37273 3.4218C4.08207 2.71148 5.24934 2.69375 5.9768 3.42203L6.27746 3.7227C6.68031 3.51426 7.09965 3.3402 7.53125 3.20227V2.77766C7.53125 1.76246 8.35719 0.936523 9.37242 0.936523H10.6276C11.6428 0.936523 12.4688 1.76246 12.4688 2.77766V3.2023C12.9004 3.3402 13.3197 3.51426 13.7225 3.72273L14.0235 3.4218C14.7523 2.69203 15.9199 2.71344 16.6276 3.42207L17.5147 4.30918C18.2237 5.01734 18.2441 6.18449 17.5145 6.91328L17.2138 7.21398C17.4223 7.61684 17.5963 8.03609 17.7342 8.46777H18.1588C19.174 8.46777 20 9.29371 20 10.3089V11.5641C20 12.5793 19.174 13.4053 18.1588 13.4053H17.7342C17.5963 13.8369 17.4223 14.2562 17.2138 14.6591L17.5147 14.96C18.2439 15.6884 18.2238 16.8556 17.5145 17.5641L16.6273 18.4513C15.9179 19.1616 14.7507 19.1793 14.0232 18.4511L13.7225 18.1504C13.3197 18.3588 12.9004 18.5329 12.4688 18.6708V19.0955C12.4688 20.1106 11.6428 20.9365 10.6276 20.9365ZM6.47332 16.9197C7.03297 17.2507 7.63531 17.5007 8.2636 17.6629C8.52235 17.7297 8.70313 17.963 8.70313 18.2302V19.0954C8.70313 19.4644 9.0034 19.7647 9.37242 19.7647H10.6276C10.9966 19.7647 11.2969 19.4644 11.2969 19.0954V18.2302C11.2969 17.963 11.4777 17.7297 11.7364 17.6629C12.3647 17.5007 12.9671 17.2507 13.5267 16.9197C13.757 16.7836 14.0502 16.8206 14.2393 17.0098L14.8522 17.6226C15.1164 17.8872 15.5407 17.881 15.7984 17.6229L16.6862 16.7352C16.9433 16.4784 16.9519 16.054 16.6864 15.7889L16.0733 15.1758C15.8842 14.9866 15.8472 14.6934 15.9833 14.4632C16.3143 13.9036 16.5643 13.3013 16.7264 12.6729C16.7932 12.4142 17.0266 12.2334 17.2938 12.2334H18.1589C18.5279 12.2334 18.8282 11.9332 18.8282 11.5642V10.3089C18.8282 9.93992 18.5279 9.63969 18.1589 9.63969H17.2938C17.0265 9.63969 16.7932 9.45891 16.7264 9.2002C16.5643 8.57188 16.3142 7.96953 15.9833 7.40992C15.8472 7.17969 15.8842 6.88649 16.0733 6.69734L16.6862 6.08449C16.9511 5.81988 16.9442 5.39566 16.6864 5.1382L15.7987 4.25051C15.5414 3.99285 15.117 3.98531 14.8524 4.25027L14.2394 4.86336C14.0502 5.05254 13.757 5.08957 13.5268 4.9534C12.9671 4.62242 12.3648 4.37238 11.7365 4.21023C11.4777 4.14348 11.297 3.91012 11.297 3.64289V2.77766C11.297 2.40863 10.9967 2.1084 10.6277 2.1084H9.37246C9.00344 2.1084 8.70317 2.40863 8.70317 2.77766V3.64281C8.70317 3.91004 8.52238 4.1434 8.26363 4.21016C7.63535 4.37231 7.03301 4.62234 6.47336 4.95332C6.24305 5.08945 5.94988 5.05242 5.76074 4.86328L5.14793 4.25043C4.88371 3.9859 4.45938 3.99203 4.20168 4.25016L3.31391 5.13789C3.0568 5.39469 3.0482 5.81902 3.31367 6.08418L3.92676 6.69727C4.1159 6.88641 4.15293 7.17961 4.0168 7.40984C3.68582 7.96945 3.43582 8.5718 3.27367 9.20012C3.20688 9.45887 2.97352 9.63961 2.70633 9.63961H1.84117C1.47215 9.63965 1.17188 9.93988 1.17188 10.3089V11.5641C1.17188 11.9332 1.47215 12.2334 1.84117 12.2334H2.70629C2.97352 12.2334 3.20684 12.4142 3.27363 12.6729C3.43578 13.3012 3.68582 13.9036 4.01676 14.4632C4.15289 14.6934 4.11586 14.9866 3.92672 15.1757L3.31387 15.7886C3.04895 16.0532 3.05586 16.4774 3.31363 16.7349L4.20133 17.6226C4.45863 17.8802 4.88301 17.8878 5.14762 17.6228L5.76066 17.0097C5.90004 16.8704 6.19 16.7522 6.47332 16.9197H6.47332Z" fill="white"/>
<path fill-rule="evenodd" clip-rule="evenodd" d="M10.0001 15.2881C7.60057 15.2881 5.6485 13.336 5.6485 10.9365C5.6485 8.53707 7.60057 6.58496 10.0001 6.58496C12.3996 6.58496 14.3516 8.53707 14.3516 10.9365C14.3516 13.336 12.3996 15.2881 10.0001 15.2881ZM10.0001 7.75684C8.24674 7.75684 6.82037 9.18324 6.82037 10.9365C6.82037 12.6898 8.24678 14.1162 10.0001 14.1162C11.7533 14.1162 13.1798 12.6898 13.1798 10.9365C13.1798 9.18324 11.7534 7.75684 10.0001 7.75684V7.75684Z" fill="white"/>
</svg>
