<svg width="16" height="12" viewBox="0 0 16 12" fill="none" xmlns="http://www.w3.org/2000/svg">
<path d="M13.8325 5.35708L13.9087 5.24827L13.8325 5.35708ZM13.8325 5.35708C13.8337 5.35841 13.8344 5.35909 13.8344 5.35914C13.8343 5.35919 13.8336 5.35868 13.8321 5.35764L13.8325 5.35708ZM13.8332 5.14185C13.8146 5.15499 13.7668 5.17515 13.6974 5.17515C13.628 5.17515 13.5801 5.15517 13.5618 5.14244C13.5617 5.14241 13.5617 5.14238 13.5616 5.14235L13.2708 4.93868L13.2707 4.93856L13.8332 5.14185ZM13.7972 5.25169C13.7967 5.18485 13.8262 5.15025 13.8332 5.14259L13.8324 5.35691C13.8247 5.34838 13.7977 5.31517 13.7972 5.25169ZM13.6974 5.2633L13.8319 5.35751L13.5499 5.15996L13.6974 5.2633ZM0.700032 3.38366V7.49363C0.6765 7.50187 0.642954 7.50924 0.600096 7.50924C0.557234 7.50924 0.523686 7.50187 0.500152 7.49363V3.38366C0.500152 2.91486 0.768914 2.43999 1.30261 2.06218C1.31109 2.05618 1.31963 2.05021 1.32822 2.04428C0.955552 2.388 0.700032 2.8481 0.700032 3.38366ZM10.019 3.38972C10.019 2.85321 9.76359 2.3923 9.39068 2.04771C9.39846 2.0531 9.40619 2.05851 9.41387 2.06395C9.94906 2.44288 10.2188 2.91927 10.2188 3.38972V3.81193C10.1952 3.82017 10.1617 3.82753 10.1189 3.82753C10.0761 3.82753 10.0425 3.82017 10.019 3.81193V3.38972ZM10.0188 9.52199V9.09374C10.0423 9.0855 10.0759 9.07812 10.1187 9.07812C10.1616 9.07812 10.1951 9.0855 10.2186 9.09374V9.52199C10.2186 9.99079 9.94988 10.4657 9.41618 10.8435C9.40803 10.8492 9.39984 10.855 9.39158 10.8607C9.76375 10.5171 10.0188 10.0572 10.0188 9.52199ZM0.702411 9.60812C0.729776 10.1055 0.976955 10.5335 1.32847 10.8583C1.32055 10.8528 1.31268 10.8473 1.30486 10.8417C0.803911 10.487 0.535525 10.0469 0.503297 9.6061C0.526649 9.59838 0.559058 9.59172 0.599936 9.59172C0.644335 9.59172 0.678745 9.59958 0.702411 9.60812Z" fill="white" stroke="white"/>
</svg>
