<svg width="25" height="25" viewBox="0 0 25 25" fill="none" xmlns="http://www.w3.org/2000/svg">
<path fill-rule="evenodd" clip-rule="evenodd" d="M13.2323 6.61941e-05C13.7703 0.0768985 14.312 0.133546 14.8455 0.234275C16.522 0.550784 18.0561 1.21532 19.4604 2.18002C19.6015 2.27704 19.7066 2.30041 19.8748 2.2215C20.729 1.82054 21.7498 2.02694 22.3824 2.70769C23.031 3.40576 23.1671 4.41076 22.7256 5.24231C22.2847 6.07288 21.345 6.53973 20.4327 6.38144C19.4864 6.2173 18.7507 5.49436 18.6233 4.54952C18.5831 4.25078 18.6303 3.93447 18.6766 3.63209C18.6984 3.48871 18.6884 3.41552 18.5655 3.33452C16.473 1.9546 14.1852 1.30713 11.6763 1.50377C8.80967 1.72853 6.38822 2.90179 4.42671 4.99449C2.81096 6.71834 1.86175 8.76859 1.55559 11.1162C1.293 13.1293 1.61602 15.0505 2.4307 16.8991C2.45948 16.9644 2.48207 17.0323 2.51404 17.116C2.0746 17.32 1.64903 17.5176 1.1726 17.7388C0.960339 17.1656 0.733944 16.6124 0.550589 16.0453C0.277313 15.2002 0.106524 14.3314 0.0412813 13.4435C0.0360722 13.3725 0.014129 13.3027 0 13.2324C0 12.7279 0 12.2232 0 11.7188C0.013674 11.656 0.0350955 11.5938 0.0399787 11.5303C0.205755 9.39666 0.865079 7.42649 2.05943 5.65303C4.05863 2.68438 6.81913 0.84776 10.3476 0.192016C10.8009 0.107761 11.2615 0.0630285 11.7188 0C12.2232 6.61941e-05 12.7278 6.61941e-05 13.2323 6.61941e-05ZM20.7822 4.93882C21.1907 4.94032 21.5158 4.62185 21.5188 4.21725C21.5218 3.82104 21.1882 3.48395 20.7905 3.48122C20.3874 3.47836 20.0627 3.80235 20.061 4.20904C20.0594 4.62049 20.3725 4.93739 20.7822 4.93882Z" fill="black"/>
<path fill-rule="evenodd" clip-rule="evenodd" d="M11.7676 25.0001C11.2378 24.9248 10.7041 24.87 10.1788 24.7708C8.49479 24.4528 6.95222 23.7883 5.54027 22.8207C5.39962 22.7244 5.29486 22.6995 5.12583 22.7775C3.94495 23.3228 2.5636 22.7282 2.14226 21.5066C1.72222 20.2889 2.43253 18.9635 3.66868 18.6586C4.93466 18.3462 6.18722 19.1611 6.37559 20.4479C6.41915 20.7455 6.36823 21.0625 6.32376 21.3652C6.30305 21.5062 6.30696 21.5815 6.43211 21.6639C8.52494 23.0415 10.8121 23.7022 13.3202 23.4943C18.077 23.0998 21.8838 19.9494 23.1545 15.3442C23.8328 12.8858 23.6073 10.4826 22.5926 8.14864C22.5576 8.06803 22.5235 7.98703 22.4874 7.90213C22.5288 7.87537 22.5537 7.85486 22.5821 7.8417C22.9792 7.65679 23.3769 7.47278 23.8104 7.27197C23.9507 7.61589 24.0959 7.94666 24.2218 8.2846C24.618 9.34872 24.8756 10.4447 24.9596 11.5793C24.9643 11.6428 24.9862 11.7049 25.0001 11.7676C25.0001 12.2722 25.0001 12.7767 25.0001 13.2813C24.9866 13.3357 24.965 13.3895 24.9609 13.4446C24.7811 15.8043 23.9989 17.9479 22.5923 19.8464C20.5998 22.5356 17.9528 24.2035 14.6515 24.8076C14.1983 24.8905 13.7383 24.9368 13.2814 25C12.7767 25.0001 12.2721 25.0001 11.7676 25.0001ZM4.93877 20.7757C4.93453 20.3673 4.61438 20.0569 4.20215 20.0615C3.79598 20.066 3.47296 20.3959 3.48136 20.7975C3.4897 21.1971 3.82854 21.5262 4.22397 21.5187C4.62942 21.5111 4.94306 21.185 4.93877 20.7757Z" fill="black"/>
<path fill-rule="evenodd" clip-rule="evenodd" d="M8.83792 7.37159C8.33825 7.37159 7.86938 7.37159 7.3869 7.37159C7.3869 6.885 7.3869 6.41626 7.3869 5.92786C10.7849 5.92786 14.1884 5.92786 17.6094 5.92786C17.6094 6.39523 17.6094 6.8697 17.6094 7.3626C17.1397 7.3626 16.6707 7.3626 16.162 7.3626C16.162 7.46541 16.162 7.55045 16.162 7.63549C16.162 8.28635 16.1699 8.93727 16.16 9.588C16.1434 10.679 15.7222 11.5901 14.9118 12.321C14.8523 12.3747 14.7927 12.4285 14.7172 12.4966C14.7821 12.5574 14.838 12.6119 14.8962 12.664C15.7235 13.4041 16.1493 14.3287 16.1607 15.4389C16.1673 16.0816 16.1619 16.7244 16.162 17.3671C16.162 17.4461 16.162 17.5252 16.162 17.622C16.6549 17.622 17.1238 17.622 17.6096 17.622C17.6096 18.1143 17.6096 18.5888 17.6096 19.0776C14.2041 19.0776 10.8005 19.0776 7.38501 19.0776C7.38501 18.5997 7.38501 18.131 7.38501 17.6354C7.85922 17.6354 8.33415 17.6354 8.83786 17.6354C8.83786 17.3927 8.83545 17.1758 8.83831 16.959C8.84697 16.3005 8.81826 15.6385 8.87679 14.9844C8.96248 14.0266 9.42686 13.2461 10.1536 12.6207C10.1951 12.5851 10.2346 12.5475 10.2869 12.5001C10.2092 12.4296 10.1445 12.3708 10.0797 12.3123C9.26988 11.5799 8.85225 10.6677 8.83955 9.57622C8.83109 8.85334 8.83792 8.13008 8.83792 7.37159ZM14.697 17.6175C14.697 16.8764 14.7024 16.1619 14.6957 15.4475C14.6843 14.2091 13.7202 13.237 12.5082 13.2332C11.2854 13.2295 10.3134 14.2066 10.3037 15.4555C10.2985 16.1137 10.3023 16.772 10.3034 17.4302C10.3035 17.492 10.3142 17.5537 10.3201 17.6175C11.7809 17.6175 13.2247 17.6175 14.697 17.6175ZM10.305 7.38528C10.305 8.15172 10.2908 8.90559 10.3083 9.65867C10.3339 10.7576 11.2318 11.6799 12.3299 11.7619C13.449 11.8455 14.515 11.0749 14.6366 9.96919C14.7298 9.12156 14.6552 8.25551 14.6552 7.38528C13.2299 7.38528 11.7861 7.38528 10.305 7.38528Z" fill="black"/>
</svg>
